<svg xmlns="http://www.w3.org/2000/svg" viewBox="0 0 512 512">
  <defs>
    <linearGradient id="bg" x1="0%" y1="0%" x2="100%" y2="100%">
      <stop offset="0%" style="stop-color:#f97316;stop-opacity:1" />
      <stop offset="100%" style="stop-color:#c2410c;stop-opacity:1" />
    </linearGradient>
  </defs>
  <rect width="512" height="512" rx="128" fill="url(#bg)" />
  <path d="M380.6 86.8c-2.5-1.5-5.6-1.5-8.1 0l-168 96c-1.8 1-2.8 2.9-2.8 4.9V348.2c-12.2-7.8-27.8-10.8-44-6.9-29.3 7-49.3 35.5-45.6 65.7 3.3 26.6 25.4 47.9 52.2 49.9 33.6 2.5 61.4-24.1 61.4-56.9V206.5l144-82.3v136c-12.2-7.8-27.8-10.8-44-6.9-29.3 7-49.3 35.5-45.6 65.7 3.3 26.6 25.4 47.9 52.2 49.9 33.6 2.5 61.4-24.1 61.4-56.9V92c0-2.8-1.5-5.4-4-6.9L380.6 86.8z" fill="white"/>
</svg>
